<svg width="16" height="16" viewBox="0 0 16 16" fill="none" xmlns="http://www.w3.org/2000/svg">
<path d="M13.6333 2.65732H13.0111V1.41283C13.0111 1.06944 12.7323 0.790649 12.3888 0.790649H11.7666C11.4231 0.790649 11.1445 1.06944 11.1445 1.41283V2.65732H4.92217V1.41283C4.92217 1.06944 4.64349 0.790649 4.29998 0.790649H3.6778C3.33429 0.790649 3.0555 1.06944 3.0555 1.41283V2.65732H2.43332C1.40417 2.65732 0.56665 3.49483 0.56665 4.52398V13.8573C0.56665 14.8865 1.40417 15.724 2.43332 15.724H13.6333C14.6625 15.724 15.5 14.8865 15.5 13.8573V4.52398C15.5 3.49483 14.6625 2.65732 13.6333 2.65732ZM14.2555 13.8573C14.2555 14.2001 13.9761 14.4795 13.6333 14.4795H2.43332C2.09049 14.4795 1.81113 14.2001 1.81113 13.8573V7.03778H14.2555V13.8573Z" fill="#A7AEBD"/>
</svg>
