<svg width="100" height="100" viewBox="0 0 100 100" fill="none" xmlns="http://www.w3.org/2000/svg">
<path fill-rule="evenodd" clip-rule="evenodd" d="M98.6252 30.2191L71.3755 1.55548C70.4303 0.564987 69.1203 0 67.7503 0H10.0009C4.48059 0 0.000990449 4.48025 0.000990449 9.99976V44.9989C0.000990449 47.759 2.24079 49.9988 5.00094 49.9988C7.7652 49.9988 10.0009 47.759 10.0009 44.9989V14.9996C10.0009 12.2402 12.2407 9.99976 15.0008 9.99976H60.0004V29.9993C60.0004 35.5243 64.48 39.999 70.0003 39.999H90.0001V44.9989C90.0001 47.759 92.2399 49.9988 95.0001 49.9988C97.7643 49.9988 100 47.759 100 44.9989V33.6647C100 32.3848 99.5096 31.1494 98.6245 30.2196M54.9999 74.9989C54.9999 72.2395 52.7642 69.999 49.9999 69.999H45V79.9988H49.9999C52.7642 79.9988 54.9999 77.7639 54.9999 74.9989ZM58.6243 87.244L61.7793 93.5587C63.2595 96.5189 61.1097 99.9981 57.7999 99.9981H57.7496C56.0644 99.9981 54.5248 99.0488 53.7695 97.5387L50.0001 89.9984H45.0001V95.5486C45.0001 98.0087 43.01 99.9981 40.5498 99.9981H39.4498C36.9952 99.9981 35.0002 98.0087 35.0002 95.5486V64.4494C35.0002 61.9941 36.9952 59.9991 39.4498 59.9991H49.2649C57.0744 59.9991 64.1197 65.6491 64.9197 73.4188C65.5098 79.1288 62.8697 84.2485 58.6244 87.2438M94.9991 89.9984H82.4992C81.1187 89.9984 79.9992 88.8789 79.9992 87.4984V64.999C79.9992 62.2396 77.7635 59.9991 74.9993 59.9991C72.2391 59.9991 69.9993 62.2396 69.9993 64.999V94.9983C69.9993 97.7584 72.2391 99.9981 74.9993 99.9981H94.9991C97.7633 99.9981 99.999 97.7584 99.999 94.9983C99.999 92.2389 97.7633 89.9984 94.9991 89.9984ZM29.9997 64.449V84.9985C29.9997 93.5537 22.8444 100.433 14.1949 99.9787C6.08458 99.5532 0 92.2739 0 84.1491V64.4495C0 61.9942 1.99498 59.9993 4.4496 59.9993H5.54962C8.00978 59.9993 9.99994 61.9942 9.99994 64.4495V84.999C9.99994 87.7592 12.2397 89.9989 14.9999 89.9989C17.7641 89.9989 19.9998 87.7592 19.9998 84.999V64.4495C19.9998 61.9942 21.9948 59.9993 24.4494 59.9993H25.5495C28.0096 59.9993 29.9998 61.9942 29.9998 64.4495" fill="#eb6161"/>
</svg>
